<?xml version="1.0" encoding="UTF-8" standalone="no"?>
<!-- Created with Inkscape (http://www.inkscape.org/) -->

<svg
   xmlns:dc="http://purl.org/dc/elements/1.1/"
   xmlns:cc="http://creativecommons.org/ns#"
   xmlns:rdf="http://www.w3.org/1999/02/22-rdf-syntax-ns#"
   xmlns:svg="http://www.w3.org/2000/svg"
   xmlns="http://www.w3.org/2000/svg"
   xmlns:sodipodi="http://sodipodi.sourceforge.net/DTD/sodipodi-0.dtd"
   xmlns:inkscape="http://www.inkscape.org/namespaces/inkscape"
   width="200"
   height="51"
   id="svg4372"
   version="1.1"
   inkscape:version="0.91 r13725"
   viewBox="0 0 200 51"
   sodipodi:docname="develoup.svg">
  <defs
     id="defs4374" />
  <sodipodi:namedview
     id="base"
     pagecolor="#ffffff"
     bordercolor="#666666"
     borderopacity="1.0"
     inkscape:pageopacity="0.0"
     inkscape:pageshadow="2"
     inkscape:zoom="2.7524473"
     inkscape:cx="89.472824"
     inkscape:cy="13.74899"
     inkscape:current-layer="layer1"
     showgrid="true"
     inkscape:document-units="px"
     inkscape:grid-bbox="true"
     inkscape:window-width="1366"
     inkscape:window-height="705"
     inkscape:window-x="-8"
     inkscape:window-y="-8"
     inkscape:window-maximized="1" />
  <metadata
     id="metadata4377">
    <rdf:RDF>
      <cc:Work
         rdf:about="">
        <dc:format>image/svg+xml</dc:format>
        <dc:type
           rdf:resource="http://purl.org/dc/dcmitype/StillImage" />
        <dc:title></dc:title>
      </cc:Work>
    </rdf:RDF>
  </metadata>
  <g
     id="layer1"
     inkscape:label="Layer 1"
     inkscape:groupmode="layer"
     style="opacity:1"
     transform="translate(0,-13)">
    <path
       style="fill:#104856;fill-opacity:1;fill-rule:evenodd;stroke:#000000;stroke-width:0.10444195;stroke-linecap:butt;stroke-linejoin:miter;stroke-miterlimit:4;stroke-dasharray:none;stroke-opacity:1"
       d="m 26.504762,24.722566 0.847189,0.683867 -0.570227,0.333591 0.01631,0.500389 1.17303,0 0.391003,-0.400315 0.472476,0.417002 -0.342138,0.33359 0.04883,0.617141 0.602813,0.283552 -0.700565,0.250201 -1.710668,0.03339 0.01631,2.718779 0.505062,0 0.260677,-0.300239 0.63539,0.50039 -0.570226,0.433676 -0.309552,-0.3336 -0.521351,-0.03339 -0.228089,1.517847 -0.260664,-1.517847 -0.602813,-0.0167 -0.244377,0.350275 -0.586517,-0.400314 0.521342,-0.433666 0.276963,0.216828 0.619103,-0.03339 -0.114039,-2.635389 -1.661795,-0.03339 -0.733151,-0.266877 0.537641,-0.216837 -0.01631,-0.533752 -0.553928,-0.433666 0.391002,-0.400315 0.391014,0.383639 1.678083,-0.04998 -0.03262,-0.533753 -0.505062,-0.266876 z"
       id="path3371"
       inkscape:connector-curvature="0" />
    <path
       style="fill:#e3e3e2;fill-opacity:1;fill-rule:evenodd;stroke:#000000;stroke-width:0;stroke-linecap:butt;stroke-linejoin:miter;stroke-miterlimit:4;stroke-dasharray:none;stroke-opacity:1"
       d="m 34.471603,24.963489 10.080407,-7.012848 0.729496,0.779196 0.46423,7.508727 -5.040204,3.187666 z"
       id="path4173"
       inkscape:connector-curvature="0" />
    <path
       inkscape:connector-curvature="0"
       id="path4175"
       d="M 18.896336,24.463098 8.8742098,17.083298 8.148932,17.903266 7.6873873,25.804898 12.698446,29.159355 Z"
       style="fill:#e3e3e2;fill-opacity:1;fill-rule:evenodd;stroke:#000000;stroke-width:0;stroke-linecap:butt;stroke-linejoin:miter;stroke-miterlimit:4;stroke-dasharray:none;stroke-opacity:1" />
    <path
       style="fill:#94a2a9;fill-opacity:1;fill-rule:evenodd;stroke:#000000;stroke-width:0;stroke-linecap:butt;stroke-linejoin:miter;stroke-miterlimit:4;stroke-dasharray:none;stroke-opacity:1"
       d="m 22.100661,38.758441 0,16.90829 1.032215,0 0,-16.90829 -1.032215,0 z"
       id="path4184"
       inkscape:connector-curvature="0" />
    <path
       inkscape:connector-curvature="0"
       id="path4188"
       d="m 30.763896,38.758441 0,16.90829 1.032215,0 0,-16.90829 -1.032215,0 z"
       style="fill:#94a2a9;fill-opacity:1;fill-rule:evenodd;stroke:#000000;stroke-width:0;stroke-linecap:butt;stroke-linejoin:miter;stroke-miterlimit:4;stroke-dasharray:none;stroke-opacity:1" />
    <path
       style="fill:#050505;fill-opacity:1;fill-rule:evenodd;stroke:#000000;stroke-width:0;stroke-linecap:butt;stroke-linejoin:miter;stroke-miterlimit:4;stroke-dasharray:none;stroke-opacity:1"
       d="m 21.343888,52.36021 11.354369,0 0,5.283838 -11.354369,0 z"
       id="path4200"
       inkscape:connector-curvature="0" />
    <path
       style="fill:#e3e3e2;fill-opacity:1;fill-rule:evenodd;stroke:#000000;stroke-width:0;stroke-linecap:butt;stroke-linejoin:miter;stroke-miterlimit:4;stroke-dasharray:none;stroke-opacity:1"
       d="m 8.0367285,47.66926 3.2348885,-2.166374 0,-8.665501 4.313185,-3.24956 6.469777,5.415934 0,16.24781 4.313186,2.166375 1.078292,0 4.313184,-2.166375 c 0,0 0,-18.414184 0,-17.330996 0,1.083186 6.469791,-4.332748 6.469791,-4.332748 l 4.313181,3.24956 0,8.665501 2.156588,2.166374 -6.469769,5.415936 0,3.24956 -5.391499,4.332748 -11.86125,0 -5.391481,-4.332748 0,-3.24956 -7.5480735,-5.415936 z"
       id="path4181"
       inkscape:connector-curvature="0" />
    <path
       style="fill:#7a8d95;fill-opacity:1;fill-rule:evenodd;stroke:#000000;stroke-width:0;stroke-linecap:butt;stroke-linejoin:miter;stroke-miterlimit:4;stroke-dasharray:none;stroke-opacity:1"
       d="m 8.2287845,17.808052 10.1662765,6.33826 -6.386512,4.670301 -3.6494274,-2.935617 -0.1303371,9.80763 -7.23369173,4.269987 6.32133733,4.26999 -2.7370734,2.068274 3.3887513,2.335152 3.388763,-2.068274 0,-9.474045 3.975266,-2.668741 7.755044,5.270768 0.06514,13.210277 8.146044,0.06668 -0.195502,-13.810745 6.647177,-4.470139 3.453925,2.46859 0,9.207156 2.932585,2.268438 3.584265,-2.068276 -2.541572,-2.33515 6.907852,-4.470152 -7.689869,-4.403426 -0.195511,-8.740124 -3.323589,2.735464 -6.256163,-4.470149 10.03593,-7.072165 -3.714593,-2.401864 -10.296613,6.938726 -8.015718,-0.06668 -10.948291,-6.738575 z"
       id="path3353"
       inkscape:connector-curvature="0" />
    <path
       style="fill:#798d95;fill-opacity:0.99607843;fill-rule:evenodd;stroke:#000000;stroke-width:0;stroke-linecap:butt;stroke-linejoin:miter;stroke-miterlimit:4;stroke-dasharray:none;stroke-opacity:1"
       d="m 15.630885,52.402069 0,4.227072 3.096644,2.113535 0,-4.227072 -3.096644,-2.113535 z"
       id="path4192"
       inkscape:connector-curvature="0" />
    <path
       inkscape:connector-curvature="0"
       id="path4194"
       d="m 34.892756,59.120089 0,-4.227071 3.096645,-2.113535 0,4.227071 -3.096645,2.113535 z"
       style="fill:#798d95;fill-opacity:0.99607843;fill-rule:evenodd;stroke:#000000;stroke-width:0;stroke-linecap:butt;stroke-linejoin:miter;stroke-miterlimit:4;stroke-dasharray:none;stroke-opacity:1" />
    <path
       style="fill:#7c8f96;fill-opacity:1;fill-rule:evenodd;stroke:#000000;stroke-width:0;stroke-linecap:butt;stroke-linejoin:miter;stroke-miterlimit:4;stroke-dasharray:none;stroke-opacity:1"
       d="m 26.309454,58.467303 -2.064426,1.056767 0,1.05677 5.161072,0 0,-1.05677 -2.06443,-1.056767 z"
       id="path4202"
       inkscape:connector-curvature="0" />
    <path
       style="fill:#050505;fill-opacity:1;fill-rule:evenodd;stroke:#000000;stroke-width:0;stroke-linecap:butt;stroke-linejoin:miter;stroke-miterlimit:4;stroke-dasharray:none;stroke-opacity:1"
       d="m 15.925101,37.472629 0,4.227072 3.617997,2.113536 0,-4.227071 z"
       id="path4204"
       inkscape:connector-curvature="0" />
    <path
       inkscape:connector-curvature="0"
       id="path4206"
       d="m 37.529581,37.472629 0,4.227072 -3.617997,2.113536 0,-4.227071 z"
       style="fill:#050505;fill-opacity:1;fill-rule:evenodd;stroke:#000000;stroke-width:0;stroke-linecap:butt;stroke-linejoin:miter;stroke-miterlimit:4;stroke-dasharray:none;stroke-opacity:1" />
    <path
       style="fill:#003d4c;fill-opacity:1;fill-rule:evenodd;stroke:#000000;stroke-width:0;stroke-linecap:butt;stroke-linejoin:miter;stroke-miterlimit:4;stroke-dasharray:none;stroke-opacity:1"
       d="m 25.487822,26.961974 1.492159,0.01141 -0.277645,1.237779 1.614962,-0.318985 0.01807,1.490382 -1.651203,-0.39874 0.0093,1.290134 0,0.793928 1.002322,-0.318996 c 0.0062,2.017253 -0.02002,1.040547 -0.01393,1.429237 l -0.975598,-0.3727 0.28836,0.856572 -1.350303,-0.03138 0.23711,-0.850308 -0.940183,0.375924 0.0193,-1.407942 0.920941,0.319534 -0.01806,-2.101773 -1.596841,0.372152 -0.0093,-1.446081 1.596841,0.31013 z"
       id="path4210"
       inkscape:connector-curvature="0"
       sodipodi:nodetypes="cccccccccccccccccccccc" />
    <text
       xml:space="preserve"
       style="font-style:normal;font-weight:normal;font-size:36.25803375px;line-height:125%;font-family:sans-serif;letter-spacing:0px;word-spacing:0px;fill:#7a8d95;fill-opacity:1;stroke:none;stroke-width:1px;stroke-linecap:butt;stroke-linejoin:miter;stroke-opacity:1"
       x="64.889847"
       y="43.879353"
       id="text3348"
       sodipodi:linespacing="125%"
       transform="scale(0.85775776,1.1658303)"><tspan
         sodipodi:role="line"
         id="tspan3350"
         x="64.889847"
         y="43.879353"
         style="font-style:normal;font-variant:normal;font-weight:normal;font-stretch:normal;font-size:40.79028702px;font-family:'Trebuchet MS';-inkscape-font-specification:'Trebuchet MS';fill:#7a8d95;fill-opacity:1">Deve<tspan
   style="fill:#e6e6e6;fill-opacity:1"
   id="tspan3358">loup</tspan></tspan></text>
    <text
       xml:space="preserve"
       style="font-style:normal;font-weight:normal;font-size:14.53089428px;line-height:125%;font-family:sans-serif;letter-spacing:0px;word-spacing:0px;fill:#e6e6e6;fill-opacity:1;stroke:none;stroke-width:1px;stroke-linecap:butt;stroke-linejoin:miter;stroke-opacity:1"
       x="67.96431"
       y="51.297817"
       id="text3364"
       sodipodi:linespacing="125%"
       transform="scale(0.84617339,1.1817909)"><tspan
         sodipodi:role="line"
         id="tspan3366"
         x="67.96431"
         y="51.297817"
         style="font-size:8.94208908px;fill:#e6e6e6">De um desenvolvedor para outro</tspan></text>
  </g>
</svg>
